<svg data-v-0dd9719b="" version="1.0" xmlns="http://www.w3.org/2000/svg" xmlns:xlink="http://www.w3.org/1999/xlink" width="100%" height="100%" viewBox="0 0 340.000000 250.000000" preserveAspectRatio="xMidYMid meet" color-interpolation-filters="sRGB" style="margin: auto;"> <rect data-v-0dd9719b="" x="0" y="0" width="100%" height="100%" fill="#fff" fill-opacity="1" class="background"></rect> <rect data-v-0dd9719b="" x="0" y="0" width="100%" height="100%" fill="url(#watermark)" fill-opacity="1" class="watermarklayer"></rect> <g data-v-0dd9719b="" fill="#3B4C9F" class="icon-text-wrapper icon-svg-group iconsvg" transform="translate(64.29999542236328,95)"><g fill="#652d90" class="iconsvg-imagesvg icon_container" transform="translate(0,0)"><rect fill="#3B4C9F" fill-opacity="0" stroke-width="2" x="0" y="0" width="60" height="60" class="image-rect"></rect> <svg viewBox="0 0 60 60" x="0" y="0" width="60" height="60" class="image-svg-svg bn" style="overflow: visible;"><g hollow-target="iconBnOutline"><g mask="url(#954f18cc-97fa-44a8-8c8b-477280567408)"><svg fill="#000000" xmlns="http://www.w3.org/2000/svg" viewBox="5 5 90 90" x="0" y="0" style="overflow: visible;" width="60" height="60" filtersec="colorsb4167254153" filter="url(#3rumBDVjGJzCb9kWxC97G)"><g transform="scale(1, 1) skewX(0)"><path d="M 5,5.000003 5,95 l 90,0 0,-89.999997 -90,0 z m 3,3 84,0 L 92,92 8,92 8,8.000003 z" color="#000"></path></g><defs><filter id="3rumBDVjGJzCb9kWxC97G"><feColorMatrix type="matrix" values="0 0 0 0 0.39453125  0 0 0 0 0.17578125  0 0 0 0 0.5625  0 0 0 1 0"></feColorMatrix></filter></defs></svg></g> <g><svg xmlns="http://www.w3.org/2000/svg" viewBox="0 0 135.98 134.6" width="52" height="52" x="4" y="4" class="image-svg-icon"><g><g><path d="M3.18 0h25.16s-19.16 30.13.57 64.07C28.91 64.07-9 47.1 3.18 0z" fill="#8bc53f"></path><path d="M136 2.41l-.12 25.16s-30-19-64.07.88c-.02 0 17.12-38.03 64.19-26.04z" fill="#3b4c9f"></path><path d="M133 134.6h-25.15s19.16-30.13-.57-64.07c0 0 37.95 16.97 25.72 64.07z" fill="#652d90"></path><path d="M0 132.17L.14 107s30 19 64.07-.88c0 .01-17.15 38.05-64.21 26.05z" fill="#ee0d00"></path><path d="M.13 51.7L0 79.78l27.37 27.5s26.92-.58 46.29-15.21l3.27-9.95S32.68 97 .13 51.7z" fill="#f6921e"></path><path d="M83.56.14H55.48l-27.63 27.5s.46 26.92 15 46.23l9.93 3.22S38.06 32.91 83.56.14z" fill="#009345"></path><path d="M135.61 82.8l.13-28.09-27.37-27.5s-26.92.58-46.29 15.21l-3.27 9.95s44.25-14.92 76.8 30.43z" fill="#1b75bb"></path><path d="M52.94 134.55H81l27.63-27.5s-.46-26.92-15-46.22l-9.93-3.22s14.74 44.17-30.76 76.94z" fill="#90278e"></path></g></g></svg></g></g><mask id="954f18cc-97fa-44a8-8c8b-477280567408"><g fill="white"><svg xmlns="http://www.w3.org/2000/svg" viewBox="5 5 90 90" x="0" y="0" style="overflow: visible;" width="60" height="60" filtersec="colorsb4167254153"><g transform="scale(1, 1) skewX(0)"><path d="M 5,5.000003 5,95 l 90,0 0,-89.999997 -90,0 z m 3,3 84,0 L 92,92 8,92 8,8.000003 z" color="#000"></path></g><defs></defs></svg></g> <g fill="black" filter="url(#5b67bee4-7b9e-4421-8e97-dbd322ea969d)"><svg xmlns="http://www.w3.org/2000/svg" viewBox="0 0 135.98 134.6" width="52" height="52" x="4" y="4" class="image-svg-icon"><g><g><path d="M3.18 0h25.16s-19.16 30.13.57 64.07C28.91 64.07-9 47.1 3.18 0z"></path><path d="M136 2.41l-.12 25.16s-30-19-64.07.88c-.02 0 17.12-38.03 64.19-26.04z"></path><path d="M133 134.6h-25.15s19.16-30.13-.57-64.07c0 0 37.95 16.97 25.72 64.07z"></path><path d="M0 132.17L.14 107s30 19 64.07-.88c0 .01-17.15 38.05-64.21 26.05z"></path><path d="M.13 51.7L0 79.78l27.37 27.5s26.92-.58 46.29-15.21l3.27-9.95S32.68 97 .13 51.7z"></path><path d="M83.56.14H55.48l-27.63 27.5s.46 26.92 15 46.23l9.93 3.22S38.06 32.91 83.56.14z"></path><path d="M135.61 82.8l.13-28.09-27.37-27.5s-26.92.58-46.29 15.21l-3.27 9.95s44.25-14.92 76.8 30.43z"></path><path d="M52.94 134.55H81l27.63-27.5s-.46-26.92-15-46.22l-9.93-3.22s14.74 44.17-30.76 76.94z"></path></g></g></svg></g><defs><filter id="5b67bee4-7b9e-4421-8e97-dbd322ea969d"><feGaussianBlur in="SourceGraphic" stdDeviation="1.26"></feGaussianBlur><feComponentTransfer><feFuncA type="discrete" tableValues="0 1 1 1 1 1 1 1 1 1 1 1 1 1 0"></feFuncA></feComponentTransfer></filter></defs></mask></svg> <!----></g> <g transform="translate(67,5.905937194824219)"><g data-gra="path-name" fill-rule="" class="tp-name iconsvg-namesvg" transform="translate(0,0)"><g transform="scale(1)"><g><path d="M4.46 3.74L4.46 3.74Q2.56 1.33 1.4 0.65L1.4 0.65Q4.75-3.78 4.75-14.33L4.75-14.33 4.75-24.66 17.86-24.66Q17.14-27.54 16.45-29.34L16.45-29.34 21.02-30.24Q22.46-26.6 22.93-24.66L22.93-24.66 34.7-24.66 34.7-21.85 9.61-21.85 9.61-14.29Q9.61-11.7 9.29-8.59 8.96-5.47 8.03-2.52 7.09 0.43 4.46 3.74ZM41.47 3.24L41.47 3.24Q40.54 1.69 39.83 0.97 39.13 0.25 39.1 0.18L39.1 0.18Q41.4-1.94 42.84-5.11 44.28-8.28 44.69-11.72 45.11-15.16 45.11-18.43L45.11-18.43 45.11-29.38 49.72-29.38 49.72-18.43Q49.72-14.8 49.27-11.12 48.82-7.45 47.25-4.01 45.68-0.58 41.47 3.24ZM59.76-28.58L59.76 0.22 55.19 0.22 55.19-28.58 59.76-28.58ZM70.27-29.48L70.27 2.23 65.63 2.23 65.63-29.48 70.27-29.48ZM41.69-10.55L41.69-10.55 38.02-12.06Q40-15.73 40.82-21.46L40.82-21.46 44.93-20.34Q43.96-14.36 41.69-10.55ZM55.44-12.24L51.37-10.4Q51.05-12.64 50.31-15.21 49.57-17.78 48.85-19.48L48.85-19.48 52.52-20.88Q55.08-15.3 55.44-12.24L55.44-12.24ZM66.31-12.71L62.5-10.58Q61.42-15.08 58.97-19.62L58.97-19.62 62.24-21.28Q63.9-18.54 64.96-16.2 66.02-13.86 66.31-12.71L66.31-12.71ZM96.73-4.57L96.73-4.57Q98.86-6.01 100.69-9.07L100.69-9.07 93.6-9.07 93.17-8.68Q95.04-5.83 96.73-4.57ZM108.9-21.35L108.9-18.94 84.56-18.94 84.56-21.35 94.32-21.35 94.32-24.73 86.44-24.73 86.44-27.07 94.32-27.07 94.32-29.95 98.89-29.95 98.89-27.07 106.6-27.07 106.6-24.73 98.89-24.73 98.89-21.35 108.9-21.35ZM84.31 2.74L84.31 2.74Q83.84 1.73 82.91 0.32L82.91 0.32Q89.1-0.68 93.78-2.81L93.78-2.81Q91.22-5.04 90.32-6.3L90.32-6.3Q89.28-5.51 86.36-3.78L86.36-3.78Q85.5-4.93 84.87-5.56 84.24-6.19 84.24-6.23L84.24-6.23Q89.78-8.96 93.67-14.76L93.67-14.76 97.45-13.39 95.69-11.2 102.49-11.2 103.39-11.38 105.88-10.22Q104.54-6.44 99.58-2.74L99.58-2.74Q104.08-0.61 109.33 0.11L109.33 0.11Q108.29 1.66 107.75 2.66L107.75 2.66Q100.48 1.44 96.55-0.94L96.55-0.94Q92.38 1.3 84.31 2.74ZM79.34 1.04L79.34 1.04 75.24-0.65Q77.72-5.51 80.46-13.1L80.46-13.1 84.24-11.2Q82.12-5.11 79.34 1.04ZM84.35-20.41L80.28-18.47Q78.66-22.82 75.78-27.11L75.78-27.11 79.34-28.62Q83.45-22.75 84.35-20.41L84.35-20.41ZM86.44-11.45L86.44-11.45 85.61-12.35 84.67-13.43Q84.31-13.82 84.31-13.86L84.31-13.86 84.38-13.79Q87.91-15.37 91.58-18.22L91.58-18.22 94.61-16.88Q91.66-14.33 86.44-11.45ZM108.58-13.75L106.52-11.52Q102.67-14.4 98.64-16.38L98.64-16.38 100.4-18.22Q106.16-15.44 108.58-13.75L108.58-13.75ZM128.95-27.11L128.95-24.59 113.8-24.59 113.8-27.11 128.95-27.11ZM130.1-3.71L130.1-3.71 126.32-2.41Q126.07-3.53 125.75-4.64L125.75-4.64Q122.08-3.74 119.72-3.13 117.36-2.52 114.01-1.48L114.01-1.48Q113.76-2.16 113.42-3.1 113.08-4.03 113.08-4.07L113.08-4.07Q113.69-4.36 114.52-6.44L114.52-6.44Q116.35-11.41 117.4-16.13L117.4-16.13 112.57-16.13 112.57-18.72 129.6-18.72 129.6-16.13 122.08-16.13Q120.71-10.84 118.55-5.65L118.55-5.65 124.96-7.13Q123.88-10.4 123.16-12.13L123.16-12.13 126.86-13.14Q129.2-7.88 130.28-4.03L130.28-4.03Q132.91-9.5 133.27-19.19L133.27-19.19 128.77-19.19 128.77-21.96 133.38-21.96Q133.45-25.78 133.45-29.34L133.45-29.34 138.06-29.34Q138.06-25.78 137.95-21.96L137.95-21.96 144.5-21.96Q145.55-21.85 145.8-21.85L145.8-21.85Q145.76-21.31 145.76-20.56L145.76-20.56Q145.48-9.86 145.06-5.26 144.65-0.65 143.82 0.25L143.82 0.25Q142.63 1.91 140.47 2.09L140.47 2.09Q139.57 2.16 138.31 2.16L138.31 2.16Q136.8 2.16 134.75 2.05L134.75 2.05Q134.68 0.9 134.03-0.76L134.03-0.76Q137.7-0.58 138.85-0.58L138.85-0.58Q139.07-0.58 139.12-0.59 139.18-0.61 139.39-0.86L139.39-0.86Q140.11-1.62 140.51-5.81 140.9-10.01 141.16-19.19L141.16-19.19 137.81-19.19Q137.56-12.38 136.04-6.89 134.53-1.4 129.82 3.28L129.82 3.28Q128.23 0.68 127.3 0.22L127.3 0.22Q128.92-1.33 130.1-3.71Z" transform="translate(-1.399999976158142, 30.239999771118164)"></path></g> <!----> <!----> <!----> <!----> <!----> <!----> <!----></g></g> <g data-gra="path-slogan" fill-rule="" class="tp-slogan iconsvg-slogansvg" fill="#652d90" transform="translate(6.459068298339844,38.97999954223633)"><rect width="0"></rect> <rect x="134.48187255859375" width="0"></rect> <g transform="translate(0,0)"><g transform="scale(1)"><path d="M6.70-3.31L4.30-3.31L4.30-4.21L7.73-4.21L7.73 0L7.05 0L6.79-0.99Q5.89 0.09 4.21 0.13L4.21 0.13Q2.62 0.13 1.76-0.69L1.76-0.69Q0.47-1.89 0.52-4.00L0.52-4.00Q0.82-7.91 4.25-8.08L4.25-8.08Q7.18-7.91 7.61-5.50L7.61-5.50L6.57-5.50Q6.14-7.13 4.21-7.18L4.21-7.18Q1.76-7.00 1.63-3.95L1.63-3.95Q1.63-0.69 4.25-0.69L4.25-0.69Q5.20-0.69 5.89-1.20L5.89-1.20Q6.75-1.89 6.70-3.31L6.70-3.31ZM14.57-2.92L14.57-7.86L15.64-7.86L15.64-2.79Q15.51 0.04 12.42 0.13L12.42 0.13Q9.54 0.04 9.41-2.62L9.41-2.62L9.41-7.86L10.48-7.86L10.48-2.92Q10.53-0.77 12.46-0.73L12.46-0.73Q14.57-0.77 14.57-2.92L14.57-2.92ZM22.47 0L21.70-2.28L18.52-2.28L17.70 0L16.63 0L19.59-7.86L20.80-7.86L23.63 0L22.47 0ZM20.11-6.70L18.86-3.22L21.31-3.22L20.15-6.70L20.11-6.70ZM25.87-7.86L29.82-1.50L29.82-7.86L30.85-7.86L30.85 0L29.65 0L25.65-6.36L25.61-6.36L25.61 0L24.58 0L24.58-7.86L25.87-7.86ZM38.37-3.31L35.96-3.31L35.96-4.21L39.40-4.21L39.40 0L38.71 0L38.46-0.99Q37.55 0.09 35.88 0.13L35.88 0.13Q34.29 0.13 33.43-0.69L33.43-0.69Q32.14-1.89 32.18-4.00L32.18-4.00Q32.48-7.91 35.92-8.08L35.92-8.08Q38.84-7.91 39.27-5.50L39.27-5.50L38.24-5.50Q37.81-7.13 35.88-7.18L35.88-7.18Q33.43-7.00 33.30-3.95L33.30-3.95Q33.30-0.69 35.92-0.69L35.92-0.69Q36.87-0.69 37.55-1.20L37.55-1.20Q38.41-1.89 38.37-3.31L38.37-3.31ZM41.81-0.95L46.66-0.95L46.66 0L40.48 0L40.48-0.86L45.29-6.96L40.82-6.96L40.82-7.86L46.66-7.86L46.66-6.96L41.81-0.95ZM48.77-4.64L52.89-4.64L52.89-7.86L53.97-7.86L53.97 0L52.89 0L52.89-3.65L48.77-3.65L48.77 0L47.70 0L47.70-7.86L48.77-7.86L48.77-4.64ZM61.83-3.91L61.83-3.91Q61.66-7.00 59.08-7.18L59.08-7.18Q56.46-7.05 56.33-3.91L56.33-3.91Q56.46-0.86 59.08-0.73L59.08-0.73Q61.66-0.90 61.83-3.91ZM62.91-3.91L62.91-3.91Q62.65 0 59.08 0.13L59.08 0.13Q55.47 0 55.21-3.91L55.21-3.91Q55.43-7.99 59.08-8.08L59.08-8.08Q62.65-7.95 62.91-3.91ZM69.35-2.92L69.35-7.86L70.43-7.86L70.43-2.79Q70.30 0.04 67.20 0.13L67.20 0.13Q64.32 0.04 64.20-2.62L64.20-2.62L64.20-7.86L65.27-7.86L65.27-2.92Q65.31-0.77 67.25-0.73L67.25-0.73Q69.35-0.77 69.35-2.92L69.35-2.92ZM75.11-7.86L76.18-7.86L76.18-0.95L80.18-0.95L80.18 0L75.11 0L75.11-7.86ZM81.38-7.86L82.46-7.86L82.46 0L81.38 0L81.38-7.86ZM85.55-7.86L89.50-1.50L89.50-7.86L90.54-7.86L90.54 0L89.33 0L85.34-6.36L85.29-6.36L85.29 0L84.26 0L84.26-7.86L85.55-7.86ZM98.05-3.31L95.65-3.31L95.65-4.21L99.09-4.21L99.09 0L98.40 0L98.14-0.99Q97.24 0.09 95.56 0.13L95.56 0.13Q93.97 0.13 93.11-0.69L93.11-0.69Q91.82-1.89 91.87-4.00L91.87-4.00Q92.17-7.91 95.61-8.08L95.61-8.08Q98.53-7.91 98.96-5.50L98.96-5.50L97.93-5.50Q97.50-7.13 95.56-7.18L95.56-7.18Q93.11-7.00 92.98-3.95L92.98-3.95Q92.98-0.69 95.61-0.69L95.61-0.69Q96.55-0.69 97.24-1.20L97.24-1.20Q98.10-1.89 98.05-3.31L98.05-3.31ZM103.94 0L100.76 0L100.76-7.86L103.98-7.86Q107.16-7.69 107.29-4.04L107.29-4.04Q107.12-0.09 103.94 0L103.94 0ZM103.81-7.00L101.84-7.00L101.84-0.90L103.90-0.90Q106.13-1.03 106.22-3.95L106.22-3.95Q106.18-6.92 103.81-7.00L103.81-7.00ZM114.86-3.91L114.86-3.91Q114.68-7.00 112.11-7.18L112.11-7.18Q109.48-7.05 109.36-3.91L109.36-3.91Q109.48-0.86 112.11-0.73L112.11-0.73Q114.68-0.90 114.86-3.91ZM115.93-3.91L115.93-3.91Q115.67 0 112.11 0.13L112.11 0.13Q108.50 0 108.24-3.91L108.24-3.91Q108.45-7.99 112.11-8.08L112.11-8.08Q115.67-7.95 115.93-3.91ZM118.46-7.86L122.42-1.50L122.42-7.86L123.45-7.86L123.45 0L122.25 0L118.25-6.36L118.21-6.36L118.21 0L117.18 0L117.18-7.86L118.46-7.86ZM130.97-3.31L128.56-3.31L128.56-4.21L132-4.21L132 0L131.31 0L131.05-0.99Q130.15 0.09 128.48 0.13L128.48 0.13Q126.89 0.13 126.03-0.69L126.03-0.69Q124.74-1.89 124.78-4.00L124.78-4.00Q125.08-7.91 128.52-8.08L128.52-8.08Q131.44-7.91 131.87-5.50L131.87-5.50L130.84-5.50Q130.41-7.13 128.48-7.18L128.48-7.18Q126.03-7.00 125.90-3.95L125.90-3.95Q125.90-0.69 128.52-0.69L128.52-0.69Q129.46-0.69 130.15-1.20L130.15-1.20Q131.01-1.89 130.97-3.31L130.97-3.31Z" transform="translate(-0.5142389112903226, 8.078125)"></path></g></g></g></g></g><defs v-gra="od"></defs></svg>